<svg width="24" height="24" viewBox="0 0 24 24" fill="none" xmlns="http://www.w3.org/2000/svg">
<path d="M3.74872 9.05371C3.27541 9.4333 3 10.0072 3 10.6139V18.9966C3 20.1012 3.89543 20.9966 5 20.9966H9.10114C9.32205 20.9966 9.50114 20.8175 9.50114 20.5966V17.4773C9.50114 16.0966 10.6204 14.9773 12.0011 14.9773C13.3818 14.9773 14.5011 16.0966 14.5011 17.4773V20.5966C14.5011 20.8175 14.6802 20.9966 14.9011 20.9966H19C20.1046 20.9966 21 20.1012 21 18.9966V10.6139C21 10.0072 20.7246 9.4333 20.2513 9.05371L13.2513 3.43978C12.5201 2.85341 11.4799 2.85341 10.7487 3.43978L3.74872 9.05371Z" fill="#121212" stroke="#121212"/>
</svg>
