<svg width="24" height="24" viewBox="0 0 24 24" fill="none" xmlns="http://www.w3.org/2000/svg">
<path d="M10.5352 2.61621C14.9085 2.61625 18.4539 6.16184 18.4541 10.5352C18.4541 10.6629 18.4494 10.7898 18.4434 10.916C18.4418 10.9499 18.4395 10.9838 18.4375 11.0176C18.4319 11.1108 18.4249 11.2036 18.416 11.2959C18.4111 11.3478 18.4054 11.3995 18.3994 11.4512C18.3924 11.512 18.3844 11.5725 18.376 11.6328C18.3672 11.6958 18.3589 11.7587 18.3486 11.8213C18.3368 11.8933 18.3233 11.9648 18.3096 12.0361C18.3006 12.0831 18.2921 12.1301 18.2822 12.1768C18.2702 12.2337 18.2564 12.2902 18.2432 12.3467C18.1555 12.7211 18.041 13.0847 17.9023 13.4365C17.8931 13.4599 17.8845 13.4835 17.875 13.5068C17.5909 14.2078 17.2093 14.858 16.7471 15.4424L21.0068 19.6162L21.0752 19.6904C21.3943 20.0734 21.3777 20.643 21.0215 21.0068C20.665 21.3707 20.0956 21.3992 19.7061 21.0879L19.6309 21.0215L15.3457 16.8232C14.8532 17.2006 14.3153 17.5208 13.7412 17.7754C13.7298 17.7805 13.7185 17.786 13.707 17.791C13.6316 17.8241 13.5552 17.855 13.4785 17.8857C13.4421 17.9004 13.4058 17.9156 13.3691 17.9297C13.2987 17.9567 13.2276 17.9818 13.1562 18.0068C13.1125 18.0222 13.0685 18.0371 13.0244 18.0518C12.9653 18.0713 12.9064 18.0912 12.8467 18.1094C12.7933 18.1257 12.7394 18.1401 12.6855 18.1553C12.5547 18.1921 12.4226 18.2257 12.2891 18.2559C12.249 18.2649 12.2093 18.2757 12.1689 18.2842C12.1132 18.2959 12.0571 18.3059 12.001 18.3164C11.9387 18.3281 11.8763 18.3394 11.8135 18.3496C11.7587 18.3585 11.7036 18.3663 11.6484 18.374C11.571 18.385 11.4932 18.3947 11.415 18.4033C11.3731 18.408 11.3312 18.413 11.2891 18.417C11.1906 18.4263 11.0917 18.4338 10.9922 18.4395C10.9707 18.4407 10.9493 18.4423 10.9277 18.4434C10.7977 18.4497 10.6668 18.4541 10.5352 18.4541C6.16184 18.4539 2.61625 14.9085 2.61621 10.5352C2.61643 6.16195 6.16195 2.61643 10.5352 2.61621Z" fill="#121212"/>
</svg>
