<svg width="32" height="32" viewBox="0 0 32 32" fill="none" xmlns="http://www.w3.org/2000/svg">
<rect x="0.5" y="0.5" width="31" height="31" rx="15.5" fill="white"/>
<rect x="0.5" y="0.5" width="31" height="31" rx="15.5" stroke="#EAEAEA"/>
<g clip-path="url(#clip0_725_940)">
<path d="M15.9997 19.5003C17.4724 19.5003 18.6663 18.3064 18.6663 16.8337C18.6663 15.3609 17.4724 14.167 15.9997 14.167C14.5269 14.167 13.333 15.3609 13.333 16.8337C13.333 18.3064 14.5269 19.5003 15.9997 19.5003Z" fill="#A5A5A5"/>
<path d="M13.5003 8.5L11.9753 10.1667H9.33366C8.41699 10.1667 7.66699 10.9167 7.66699 11.8333V21.8333C7.66699 22.75 8.41699 23.5 9.33366 23.5H22.667C23.5837 23.5 24.3337 22.75 24.3337 21.8333V11.8333C24.3337 10.9167 23.5837 10.1667 22.667 10.1667H20.0253L18.5003 8.5H13.5003ZM16.0003 21C13.7003 21 11.8337 19.1333 11.8337 16.8333C11.8337 14.5333 13.7003 12.6667 16.0003 12.6667C18.3003 12.6667 20.167 14.5333 20.167 16.8333C20.167 19.1333 18.3003 21 16.0003 21Z" fill="#A5A5A5"/>
</g>
<defs>
<clipPath id="clip0_725_940">
<rect width="20" height="20" fill="white" transform="translate(6 6)"/>
</clipPath>
</defs>
</svg>
