<svg width="24" height="24" viewBox="0 0 24 24" fill="none" xmlns="http://www.w3.org/2000/svg">
<g clip-path="url(#clip0_811_1697)">
<path d="M11.9998 16.2C13.7671 16.2 15.1998 14.7674 15.1998 13C15.1998 11.2327 13.7671 9.80005 11.9998 9.80005C10.2325 9.80005 8.7998 11.2327 8.7998 13C8.7998 14.7674 10.2325 16.2 11.9998 16.2Z" fill="#A5A5A5"/>
<path d="M9.00098 3L7.17098 5H4.00098C2.90098 5 2.00098 5.9 2.00098 7V19C2.00098 20.1 2.90098 21 4.00098 21H20.001C21.101 21 22.001 20.1 22.001 19V7C22.001 5.9 21.101 5 20.001 5H16.831L15.001 3H9.00098ZM12.001 18C9.24098 18 7.00098 15.76 7.00098 13C7.00098 10.24 9.24098 8 12.001 8C14.761 8 17.001 10.24 17.001 13C17.001 15.76 14.761 18 12.001 18Z" fill="#A5A5A5"/>
</g>
<defs>
<clipPath id="clip0_811_1697">
<rect width="24" height="24" fill="white"/>
</clipPath>
</defs>
</svg>
