<svg width="34" height="41" viewBox="0 0 34 41" fill="none" xmlns="http://www.w3.org/2000/svg">
<g filter="url(#filter0_d_1110_864)">
<path d="M16 3.71729C22.152 3.71756 27.1404 8.70464 27.1406 14.8569C27.1404 16.8256 26.4127 18.8183 25.4678 20.603C24.5113 22.4095 23.2555 24.1455 22.0342 25.6382C20.8082 27.1365 19.5862 28.425 18.6738 29.3374C18.2178 29.7934 17.8364 30.1598 17.5654 30.4136C17.43 30.5404 17.3225 30.6396 17.249 30.7065C17.2179 30.7349 17.1832 30.7658 17.1611 30.7856L17.1602 30.7866C17.158 30.7885 17.1554 30.7897 17.1533 30.7915L17.1504 30.7954L17.127 30.8159L16.708 31.188L15.999 31.8179L15.29 31.187L14.9766 30.9077L14.8701 30.813C14.8673 30.8105 14.865 30.8076 14.8623 30.8052C14.856 30.7998 14.8489 30.7939 14.8418 30.7876L14.8398 30.7856C14.8178 30.7659 14.7829 30.7347 14.752 30.7065C14.6785 30.6396 14.5709 30.5403 14.4355 30.4136C14.1655 30.1606 13.782 29.7942 13.3252 29.3374C12.4128 28.425 11.1906 27.1363 9.96484 25.6382C8.74345 24.1453 7.48945 22.409 6.5332 20.603C5.58832 18.8182 4.86055 16.8256 4.86035 14.8569C4.86061 8.70478 9.84785 3.71755 16 3.71729ZM17.1035 30.8345C17.1025 30.8353 17.1012 30.836 17.1006 30.8364L17.0996 30.8374C17.1 30.8371 17.1012 30.8365 17.1025 30.8354C17.1046 30.8337 17.109 30.8301 17.1143 30.8257C17.1174 30.823 17.1212 30.8191 17.126 30.8149C17.1155 30.8237 17.108 30.8309 17.1035 30.8345ZM14.8252 30.77L14.8262 30.7681C14.8182 30.76 14.8104 30.7528 14.8037 30.7456C14.8109 30.7531 14.8172 30.7621 14.8252 30.77ZM14.7383 30.6724C14.7407 30.6755 14.7441 30.6785 14.7471 30.6821C14.7404 30.6738 14.7346 30.6671 14.7305 30.6616C14.7295 30.6603 14.7285 30.659 14.7275 30.6577C14.7309 30.6622 14.7343 30.6673 14.7383 30.6724ZM15.9678 12.5132C14.8912 12.5135 14.0186 13.3869 14.0186 14.4644C14.0191 15.541 14.8912 16.4133 15.9678 16.4136C17.045 16.4136 17.9184 15.5408 17.9189 14.4644L17.9092 14.2642C17.8091 13.2807 16.9776 12.5132 15.9678 12.5132Z" fill="#E0007F" stroke="white" stroke-width="2.13333"/>
</g>
<defs>
<filter id="filter0_d_1110_864" x="-3.42857" y="-0.285714" width="41.1429" height="41.1429" filterUnits="userSpaceOnUse" color-interpolation-filters="sRGB">
<feFlood flood-opacity="0" result="BackgroundImageFix"/>
<feColorMatrix in="SourceAlpha" type="matrix" values="0 0 0 0 0 0 0 0 0 0 0 0 0 0 0 0 0 0 127 0" result="hardAlpha"/>
<feOffset dx="1.14286" dy="2.28571"/>
<feGaussianBlur stdDeviation="2.28571"/>
<feComposite in2="hardAlpha" operator="out"/>
<feColorMatrix type="matrix" values="0 0 0 0 0 0 0 0 0 0 0 0 0 0 0 0 0 0 0.12 0"/>
<feBlend mode="normal" in2="BackgroundImageFix" result="effect1_dropShadow_1110_864"/>
<feBlend mode="normal" in="SourceGraphic" in2="effect1_dropShadow_1110_864" result="shape"/>
</filter>
</defs>
</svg>
