<svg width="24" height="24" viewBox="0 0 24 24" fill="none" xmlns="http://www.w3.org/2000/svg">
<path d="M12 2C17.5228 2 22 6.47715 22 12C22 17.5228 17.5228 22 12 22C6.47715 22 2 17.5228 2 12C2 6.47715 6.47715 2 12 2ZM16.041 7.95996C15.6505 7.56949 15.0175 7.5696 14.627 7.95996L12 10.5859L9.37402 7.95996C8.9835 7.56944 8.35049 7.56944 7.95996 7.95996C7.56956 8.35049 7.56948 8.98354 7.95996 9.37402L10.5859 12L7.95996 14.627C7.56972 15.0175 7.56953 15.6506 7.95996 16.041C8.35041 16.4312 8.98357 16.4312 9.37402 16.041L12 13.4141L14.627 16.041L14.7021 16.1094C15.0949 16.4298 15.6749 16.407 16.041 16.041C16.4072 15.6749 16.4298 15.0949 16.1094 14.7021L16.041 14.627L13.4141 12L16.041 9.37402C16.4313 8.98358 16.4312 8.35045 16.041 7.95996Z" fill="#A5A5A5"/>
</svg>
